<?xml version="1.0" standalone="no"?>
<!DOCTYPE svg PUBLIC "-//W3C//DTD SVG 1.1//EN" "http://www.w3.org/Graphics/SVG/1.1/DTD/svg11.dtd">
<svg xmlns="http://www.w3.org/2000/svg" width="93" height="93" viewBox="0 0 93 93" fill="none">
<path d="M23.5986 22.9329H24.0706L24.0978 22.4617L24.1426 21.685C24.1961 20.7565 24.3444 19.7088 24.5804 18.6066C25.4587 14.5056 27.326 10.8741 30.1856 7.71089C30.9252 6.8928 32.7419 5.28926 33.6901 4.61888L33.4293 4.25003L33.6901 4.61887C37.0472 2.245 40.9244 0.849783 44.9736 0.556549C50.7139 0.140869 56.4069 2.02859 60.8875 5.84008C65.3271 9.61663 68.2544 15.1752 68.8362 20.9298L69.3233 20.8806L68.8362 20.9299C68.8785 21.3482 68.9309 21.8683 68.9527 22.0855L68.9923 22.4808L69.0374 22.9302L69.4891 22.9309L80.536 22.9478L91.479 22.9644L91.7183 23.0688C92.0821 23.2274 92.3798 23.5461 92.4817 23.8324L92.4818 23.8325C92.4822 23.8337 92.4827 23.8348 92.4831 23.8359C92.4858 23.8424 92.4888 23.8495 92.4926 23.8946C92.4988 23.9678 92.5026 24.1039 92.4978 24.3755C92.4883 24.9139 92.4463 25.9191 92.3471 27.8718C92.1488 31.7724 91.7238 39.4226 90.8799 54.6009C90.3618 63.9206 89.9262 71.6303 89.6123 77.0557C89.4553 79.7685 89.3288 81.9098 89.2376 83.3956C89.1919 84.1386 89.1552 84.7168 89.1279 85.1204C89.1219 85.2084 89.1164 85.2879 89.1114 85.3588C89.1049 85.4505 89.0992 85.5279 89.0943 85.5908C89.0876 85.6761 89.0833 85.7219 89.0815 85.7407C89.0807 85.7497 89.0804 85.7526 89.0807 85.7506C88.7174 87.8516 87.4501 89.742 85.5442 90.9917L85.8025 91.3855L85.5442 90.9917C84.8729 91.432 83.5289 92.0271 82.8308 92.1976C82.7525 92.2167 82.6755 92.2374 82.6111 92.2546C82.5786 92.2633 82.5493 92.2712 82.5247 92.2775C82.1086 92.3849 81.6753 92.448 76.948 92.4759C72.8132 92.5004 65.4318 92.5002 51.9541 92.4999C50.1453 92.4998 48.2267 92.4998 46.1915 92.4998C44.2057 92.4998 42.3311 92.4998 40.5614 92.4999C26.9883 92.5003 19.581 92.5005 15.452 92.4765C10.7429 92.449 10.3511 92.3866 9.97518 92.2843C9.95454 92.2786 9.92978 92.2717 9.90213 92.2639C9.84393 92.2475 9.77295 92.2275 9.70079 92.209C7.08136 91.5381 4.962 89.6371 4.05719 87.1605C4.0336 87.096 4.00089 87.011 3.97378 86.9405C3.95654 86.8957 3.94156 86.8568 3.93263 86.8328L3.4639 87.0068L3.93263 86.8328C3.77107 86.3977 3.66455 85.9424 3.41296 81.7431C3.191 78.0381 2.85582 71.4668 2.24495 59.4901C2.1696 58.0127 2.09004 56.453 2.00599 54.8063C1.58196 46.4984 1.2005 38.8938 0.927508 33.3346C0.791011 30.555 0.681649 28.287 0.60765 26.6982C0.570646 25.9037 0.542512 25.2796 0.524254 24.8465C0.515118 24.6298 0.508497 24.4619 0.504476 24.3448C0.502421 24.2849 0.501395 24.2455 0.500772 24.2215C0.499936 24.1894 0.499824 24.1851 0.498925 24.1967C0.531207 23.7801 0.716176 23.4627 1.03726 23.2442L1.03727 23.2442C1.07686 23.2172 1.11206 23.1917 1.13925 23.1719L1.14782 23.1657C1.17822 23.1437 1.19661 23.1307 1.21336 23.1199L1.2159 23.1182C1.24557 23.099 1.29838 23.0647 1.53768 23.0334C1.80062 22.999 2.23578 22.9748 3.01455 22.9592C4.37698 22.9321 6.72112 22.9323 10.8769 22.9328C11.4482 22.9328 12.0537 22.9329 12.6956 22.9329H23.5986ZM44.4634 5.03977L44.5346 5.53468L44.4634 5.03977C41.4489 5.47338 38.8209 6.56324 36.4524 8.36571C33.6416 10.5048 31.5595 13.4146 30.3458 16.8864L30.3457 16.8864C29.8408 18.331 29.4658 20.1671 29.3793 21.6266L29.3793 21.6267L29.3333 22.4034L29.302 22.9329H29.8324H46.5359H63.2395H63.7846L63.7376 22.3899L63.7007 21.9619C63.5589 20.3207 63.379 19.262 63.0154 17.9557C61.7495 13.4076 58.7251 9.44618 54.7535 7.14997C52.9599 6.11305 51.0984 5.45157 48.9834 5.09696L48.9171 5.49226L48.9834 5.09696C48.5217 5.01955 47.6014 4.9762 46.7208 4.96503C45.8408 4.95387 44.9218 4.97385 44.4634 5.03977Z" fill="black" stroke="black"/>
<path d="M28.477 74.4365C27.8876 74.4365 27.372 74.3325 26.93 74.1245C26.488 73.9165 26.1413 73.6348 25.89 73.2795C25.6473 72.9241 25.5086 72.5298 25.474 72.0965H26.085C26.1543 72.5731 26.3753 72.9978 26.748 73.3705C27.1293 73.7431 27.7056 73.9295 28.477 73.9295C28.9276 73.9295 29.3176 73.8471 29.647 73.6825C29.985 73.5178 30.245 73.2925 30.427 73.0065C30.609 72.7205 30.7 72.4041 30.7 72.0575C30.7 71.6155 30.5916 71.2645 30.375 71.0045C30.167 70.7445 29.9026 70.5495 29.582 70.4195C29.27 70.2895 28.8453 70.1508 28.308 70.0035C27.7186 69.8475 27.242 69.6915 26.878 69.5355C26.5226 69.3795 26.2193 69.1411 25.968 68.8205C25.7253 68.4911 25.604 68.0448 25.604 67.4815C25.604 67.0481 25.7166 66.6538 25.942 66.2985C26.176 65.9345 26.5053 65.6485 26.93 65.4405C27.3546 65.2325 27.8443 65.1285 28.399 65.1285C29.205 65.1285 29.855 65.3278 30.349 65.7265C30.843 66.1251 31.1376 66.6148 31.233 67.1955H30.609C30.557 66.9615 30.44 66.7231 30.258 66.4805C30.0846 66.2378 29.8333 66.0385 29.504 65.8825C29.1833 65.7178 28.7976 65.6355 28.347 65.6355C27.7403 65.6355 27.229 65.8045 26.813 66.1425C26.397 66.4718 26.189 66.9138 26.189 67.4685C26.189 67.9105 26.2973 68.2658 26.514 68.5345C26.7306 68.7945 26.995 68.9938 27.307 69.1325C27.6276 69.2625 28.0566 69.3968 28.594 69.5355C29.192 69.7001 29.6643 69.8605 30.011 70.0165C30.3663 70.1638 30.6653 70.4021 30.908 70.7315C31.1593 71.0521 31.285 71.4898 31.285 72.0445C31.285 72.4518 31.1766 72.8375 30.96 73.2015C30.7433 73.5655 30.4226 73.8645 29.998 74.0985C29.582 74.3238 29.075 74.4365 28.477 74.4365Z" fill="#DC143C"/>
<path d="M37.1052 74.4495C36.2645 74.4495 35.5062 74.2545 34.8302 73.8645C34.1542 73.4658 33.6255 72.9111 33.2442 72.2005C32.8629 71.4898 32.6722 70.6881 32.6722 69.7955C32.6722 68.8941 32.8629 68.0925 33.2442 67.3905C33.6255 66.6798 34.1542 66.1295 34.8302 65.7395C35.5062 65.3408 36.2645 65.1415 37.1052 65.1415C37.9459 65.1415 38.7042 65.3408 39.3802 65.7395C40.0562 66.1295 40.5849 66.6798 40.9662 67.3905C41.3475 68.0925 41.5382 68.8941 41.5382 69.7955C41.5382 70.6881 41.3475 71.4898 40.9662 72.2005C40.5849 72.9111 40.0562 73.4658 39.3802 73.8645C38.7042 74.2545 37.9459 74.4495 37.1052 74.4495ZM37.1052 73.9295C37.8245 73.9295 38.4745 73.7605 39.0552 73.4225C39.6359 73.0845 40.0909 72.6035 40.4202 71.9795C40.7582 71.3555 40.9272 70.6275 40.9272 69.7955C40.9272 68.9548 40.7582 68.2225 40.4202 67.5985C40.0909 66.9745 39.6359 66.4935 39.0552 66.1555C38.4745 65.8175 37.8245 65.6485 37.1052 65.6485C36.3859 65.6485 35.7359 65.8175 35.1552 66.1555C34.5745 66.4935 34.1152 66.9745 33.7772 67.5985C33.4392 68.2225 33.2702 68.9548 33.2702 69.7955C33.2702 70.6275 33.4392 71.3555 33.7772 71.9795C34.1152 72.6035 34.5745 73.0845 35.1552 73.4225C35.7359 73.7605 36.3859 73.9295 37.1052 73.9295ZM49.8327 74.3455H49.2477L43.8917 66.1815V74.3455H43.3067V65.2325H43.8917L49.2477 73.3705V65.2325H49.8327V74.3455ZM52.5626 65.2195V74.3455H51.9776V65.2195H52.5626ZM59.7511 65.2195V65.7135H57.1511V74.3455H56.5661V65.7135H53.9661V65.2195H59.7511ZM66.3176 72.0055H61.9886L61.1176 74.3455H60.4806L63.8346 65.4275H64.4846L67.8256 74.3455H67.1886L66.3176 72.0055ZM66.1356 71.5115L64.1596 66.1945L62.1706 71.5115H66.1356Z" fill="white"/>
<path d="M36.2544 60.256C34.3131 60.256 32.7238 59.8293 31.4864 58.976C30.2704 58.1227 29.5878 56.9067 29.4384 55.328H30.9104C31.0171 56.4587 31.5291 57.3547 32.4464 58.016C33.3851 58.6773 34.6544 59.008 36.2544 59.008C37.5771 59.008 38.6224 58.6773 39.3904 58.016C40.1798 57.3333 40.5744 56.5013 40.5744 55.52C40.5744 54.8373 40.3611 54.2827 39.9344 53.856C39.5291 53.408 39.0171 53.0667 38.3984 52.832C37.7798 52.5973 36.9371 52.3413 35.8704 52.064C34.5904 51.7227 33.5558 51.392 32.7664 51.072C31.9771 50.7307 31.3051 50.2293 30.7504 49.568C30.1958 48.9067 29.9184 48.0213 29.9184 46.912C29.9184 46.1013 30.1638 45.3547 30.6544 44.672C31.1451 43.968 31.8278 43.4133 32.7024 43.008C33.5771 42.6027 34.5691 42.4 35.6784 42.4C37.4918 42.4 38.9531 42.8587 40.0624 43.776C41.1931 44.672 41.8011 45.92 41.8864 47.52H40.4464C40.3824 46.368 39.9344 45.4293 39.1024 44.704C38.2704 43.9787 37.1184 43.616 35.6464 43.616C34.4091 43.616 33.3851 43.936 32.5744 44.576C31.7638 45.216 31.3584 45.9947 31.3584 46.912C31.3584 47.7227 31.5824 48.384 32.0304 48.896C32.4998 49.3867 33.0651 49.7707 33.7264 50.048C34.4091 50.304 35.3051 50.5813 36.4144 50.88C37.6304 51.2 38.6011 51.52 39.3264 51.84C40.0731 52.1387 40.7024 52.5867 41.2144 53.184C41.7264 53.76 41.9824 54.5387 41.9824 55.52C41.9824 56.416 41.7371 57.2267 41.2464 57.952C40.7558 58.6773 40.0731 59.2427 39.1984 59.648C38.3238 60.0533 37.3424 60.256 36.2544 60.256Z" fill="white"/>
<path d="M52.2567 58.432L58.6567 42.624H60.1927L52.9927 60H51.4887L44.2887 42.624H45.8567L52.2567 58.432Z" fill="#DC143C"/>
</svg>